<?xml version="1.0" encoding="iso-8859-1"?>
<!-- Generator: Adobe Illustrator 19.0.0, SVG Export Plug-In . SVG Version: 6.00 Build 0)  -->
<svg version="1.1" id="Logo_Horizontal" xmlns="http://www.w3.org/2000/svg" xmlns:xlink="http://www.w3.org/1999/xlink" x="0px"
	 y="0px" viewBox="0 0 1496.125 390.032" style="enable-background:new 0 0 1496.125 390.032;" xml:space="preserve">
<path style="fill:#62269E;" d="M503.027,156.341c28.918,0,41.758,19.439,41.758,41.398s-12.359,42.598-41.758,42.598
	c-10.56,0-23.879,0-34.439,0v-83.997H503.027z M487.068,223.058h15.959c18.239,0,23.279-13.439,23.279-25.559
	c0-12.119-5.76-24.239-23.279-24.239h-15.959V223.058z M620.865,240.337h-63.957c0-27.959,0-56.038,0-83.997h62.277V173.5h-43.918
	v16.199h41.398v16.439h-41.398v16.919h45.598V240.337z M685.304,176.62c-4.68-4.92-12.839-7.08-19.439-7.08
	c-8.279,0-14.999,3.48-14.999,9.24c0,7.68,7.319,9.12,18.119,10.08c16.56,1.44,32.279,7.8,32.279,27.239
	c0,18.719-17.279,26.879-35.399,26.999c-14.519,0.12-29.639-5.52-36.718-17.279l11.16-11.639
	c6.479,8.279,17.159,11.879,25.679,11.879c9.96,0,16.799-3.96,16.799-9.959c0.12-7.08-5.52-10.32-16.919-11.28
	c-17.759-1.68-33.599-6.12-33.358-25.919c0.12-16.679,15.959-25.559,33.239-25.559c12.959,0,22.679,2.88,31.319,12.959
	L685.304,176.62z M714.105,240.337v-83.997h18.6v83.997H714.105z M811.062,178.42c-5.16-4.92-12.959-7.439-19.679-7.439
	c-15.959,0-26.399,9.119-26.399,27.479c0,12,6.6,26.999,26.399,26.999c5.88,0,11.399-0.96,17.879-5.88v-13.439h-20.039V190.54
	h36.238v36.598c-7.2,10.32-18.719,15.6-34.199,15.6c-32.398,0-44.638-22.439-44.638-44.278c0-23.639,13.919-44.638,44.758-44.638
	c11.399,0,21.719,3.12,31.319,12.959L811.062,178.42z M898.9,210.938l-1.2-26.399v-28.199h18.839v83.997H900.46l-41.759-53.758
	l0.72,27.599v26.159h-18.959v-83.997h16.08L898.9,210.938z M978.702,173.02h-25.559v-16.679c24.479,0,45.118,0,69.717,0v16.679
	h-25.559v67.317h-18.6V173.02z M1100.1,240.337h-63.958c0-27.959,0-56.038,0-83.997h62.278V173.5h-43.918v16.199h41.398v16.439
	h-41.398v16.919h45.598V240.337z M1187.938,182.02l-25.919,32.639h-3.36l-25.079-32.878v58.678h-18.72v-83.997
	c7.08,0,14.399,0,21.479,0l24.479,32.278l24.599-32.278h21.239v83.997h-18.719V182.02z M1244.099,216.578v23.759h-18.719v-83.997
	c13.439,0,26.279,0,39.598,0c21.479,0,32.159,13.919,32.159,30.119c0,16.799-10.8,29.879-32.159,30.119H1244.099z M1244.099,199.419
	h20.879c9,0,13.439-5.88,13.439-12.6s-4.56-12.719-13.439-12.719h-20.879V199.419z M1327.978,156.341v66.837h41.999v17.159h-60.717
	v-83.997H1327.978z M1445.215,240.337h-63.958c0-27.959,0-56.038,0-83.997h62.278V173.5h-43.918v16.199h41.398v16.439h-41.398
	v16.919h45.598V240.337z M364.136,290.217L234.397,49.911l183.497,240.306H364.136z M234.397,340.126v-24.96V49.911L50.91,290.217
	L234.397,340.126z M356.604,306.84L234.397,49.911l70.727,254.131L356.604,306.84z M291.047,303.277l-56.65-253.366l13.289,267.063
	l47.88,6.512l-4.52-20.21L291.047,303.277z"/>
</svg>
